<?xml version="1.0" encoding="UTF-8" standalone="no"?>
<!-- Created with Inkscape (http://www.inkscape.org/) -->

<svg
   width="111.22531mm"
   height="115.61162mm"
   viewBox="0 0 111.22531 115.61162"
   version="1.1"
   id="svg1"
   xml:space="preserve"
   sodipodi:docname="ziselin bild flach.svg"
   inkscape:version="1.3 (0e150ed6c4, 2023-07-21)"
   xmlns:inkscape="http://www.inkscape.org/namespaces/inkscape"
   xmlns:sodipodi="http://sodipodi.sourceforge.net/DTD/sodipodi-0.dtd"
   xmlns="http://www.w3.org/2000/svg"
   xmlns:svg="http://www.w3.org/2000/svg"><sodipodi:namedview
     id="namedview1"
     pagecolor="#ffffff"
     bordercolor="#000000"
     borderopacity="0.25"
     inkscape:showpageshadow="2"
     inkscape:pageopacity="0.0"
     inkscape:pagecheckerboard="0"
     inkscape:deskcolor="#d1d1d1"
     inkscape:document-units="mm"
     inkscape:zoom="0.83246121"
     inkscape:cx="479.30161"
     inkscape:cy="362.17904"
     inkscape:window-width="3200"
     inkscape:window-height="1711"
     inkscape:window-x="2391"
     inkscape:window-y="-9"
     inkscape:window-maximized="1"
     inkscape:current-layer="layer1" /><defs
     id="defs1" /><g
     inkscape:label="Ebene 1"
     inkscape:groupmode="layer"
     id="layer1"
     transform="translate(-50.311883,-33.7793)"><path
       id="path1"
       style="fill:#1c241c;stroke-width:0.25;stroke-linejoin:round"
       d="m 124.12857,35.447932 c -4.21128,0.07946 -6.51567,1.112487 -8.66097,2.701644 -2.14537,1.589149 -3.89359,3.49589 -5.40329,5.800163 -1.50971,2.304265 -3.41681,6.515906 -4.05247,8.184513 -0.63566,1.668607 -2.70145,2.622024 -3.57549,3.257682 -0.87404,0.635666 -4.529254,4.449405 -5.403288,5.482353 -0.87403,1.03295 -3.813828,3.972985 -4.211112,4.370276 -0.39729,0.397283 -3.654906,4.767608 -4.211113,5.721098 -0.5562,0.953491 -1.827758,1.589138 -2.463415,2.304252 -0.411867,0.463343 -1.653222,2.119021 -2.789494,3.653524 1.388804,-0.749216 4.155961,-2.088515 7.636743,-2.938322 5.800207,-1.41608 10.488249,-1.271241 10.488249,-1.271241 0,0 -6.340041,1.639547 -12.554273,3.535702 -3.758134,1.146725 -6.77716,3.094374 -8.011397,3.963582 -1.380444,1.856333 -4.128126,5.482119 -4.940267,6.564974 -0.953491,1.271324 -1.430404,3.416329 -1.430404,3.416329 0,0 -1.589051,3.019725 -3.575492,4.847249 -1.986439,1.827531 -5.323623,5.87982 -6.594946,6.59495 -1.271324,0.71512 -2.860661,3.57571 -3.099036,4.05246 -0.238374,0.47675 0.63583,0.31746 1.430404,-0.23874 0.794575,-0.55621 8.104415,-3.8933 8.104415,-3.8933 0,0 -1.668403,2.38369 -3.178101,4.29069 -1.509691,1.90699 -5.562121,6.35651 -6.674528,7.54838 -1.112407,1.19181 -7.07192,7.38973 -7.07192,7.38973 l -1.905826,2.22415 c 0.0016,-8.8e-4 2.320142,-1.30062 2.994132,-1.63763 0.674218,-0.33711 3.202389,-2.02261 3.202389,-2.02261 l -1.179773,4.83174 c 0,0 2.528214,-1.1796 3.427181,-2.13475 0.898959,-0.95515 4.157476,-4.71961 6.854362,-7.58507 2.696878,-2.86538 2.359909,-2.80971 3.933093,-3.65249 1.573177,-0.84278 5.674635,-3.14603 7.528739,-4.15737 1.854104,-1.01127 5.787028,-3.70859 6.517432,-4.439 0.730402,-0.73041 5.674839,-1.46038 6.180501,-1.46038 0.505669,0 3.202905,-0.61805 3.202905,-0.61805 0,0 0.33675,1.06756 0.673861,1.85415 0.337113,0.7866 6.236979,8.25923 6.911209,8.98964 0.67422,0.73034 0.56153,2.13509 0.2806,2.4722 -0.28092,0.33712 -2.07858,1.12339 -2.752803,0.89865 -0.674224,-0.22474 -1.123782,0.50578 -1.460893,1.06763 -0.337113,0.56186 0.05607,1.34825 -0.449585,1.96629 -0.505669,0.61804 -4.494776,2.69728 -4.888074,2.80965 -0.393291,0.11237 -1.292444,-0.22497 -1.910477,0.11214 -0.618041,0.33712 -0.842896,1.46095 -1.067636,2.30373 -0.224735,0.84278 -3.483378,3.31472 -4.045231,3.59565 -0.561846,0.28093 -2.022615,1.12396 -2.022615,1.12396 0,0 -0.280797,0.50562 -0.561723,1.17977 -0.280927,0.67423 -2.247408,2.86546 -2.247408,2.86546 0,0 -0.617913,-0.50571 -0.561723,-1.62935 0.05618,-1.12371 -0.112545,-2.07874 0.33693,-3.42719 0.449485,-1.34838 0.561683,-1.96639 0.954981,-2.41587 0.393291,-0.44949 2.359796,-1.5736 2.865458,-1.79834 0.505667,-0.22475 1.966672,-3.2585 2.528528,-4.60695 0.561846,-1.34845 0.280982,-1.79816 0.224792,-2.13527 -0.05618,-0.33711 0.280787,-1.62933 -0.05633,-2.64067 -0.337114,-1.01133 0.112655,-1.96629 0.112655,-1.96629 l 0.61805,-2.4722 c 0,0 -1.854413,1.3485 -2.978113,2.4722 -1.123702,1.12371 -2.35984,2.13499 -3.090251,3.42718 -0.730402,1.29225 -0.899077,0.95495 -1.067635,1.34824 -0.168556,0.3933 -1.067491,2.69692 -1.011308,4.10156 0.05618,1.40463 1.292428,3.03444 1.292428,3.03444 0,0 -0.561773,1.40421 -0.786515,2.07843 -0.22474,0.67422 -0.449585,1.74201 -0.449585,1.74201 0,0 -0.84298,-2.69672 -0.89917,-3.20239 -0.05618,-0.50567 -1.348386,-2.69729 -1.404566,-3.4277 -0.05618,-0.73041 -1.517038,-2.13473 -1.85415,-3.14606 -0.337112,-1.01132 -4.606954,-1.06763 -4.606954,-1.06763 0,0 1.629517,1.74185 2.303735,3.31504 0.674224,1.57319 -2.72e-4,-2.3e-4 0.505396,0.11214 0.505662,0.11238 2.078943,1.12396 2.078943,1.12396 0,0 1.460569,1.51658 1.741496,2.07843 0.28092,0.56185 1.685594,5.00068 1.85415,5.39398 0.168555,0.3933 -0.617681,5.89954 -0.673861,6.57376 -0.05619,0.67423 -1.404565,2.35955 -1.404565,2.35955 l -1.067635,-1.12345 c 0,0 -0.168465,-4.43878 -0.168465,-5.16919 0,-0.73041 -2.865469,-2.80929 -3.483509,-3.48351 -0.618032,-0.67422 -1.011416,0.1127 -1.460892,-0.2806 -0.449483,-0.39329 -3.202599,-0.28122 -4.101559,-0.11266 -0.898959,0.16856 -2.978113,0.61805 -2.978113,0.61805 0,0 1.124065,0.28086 1.573548,0.56172 0.449477,0.28092 0.9549,0.89906 1.741496,2.07895 0.786589,1.1799 1.517038,2.47202 1.85415,2.80913 0.337112,0.33712 1.685794,1.18025 2.13527,1.57355 0.449483,0.39329 2.921371,0.44945 3.370854,0.39325 0.449477,-0.0562 1.067402,1.23625 1.179773,1.91048 0.112371,0.67422 -1.235874,3.82025 -1.348238,4.15737 -0.112371,0.33711 -2.135271,2.13527 -2.135271,2.13527 0,0 -1.011256,3.03387 -0.786515,2.80913 0.224742,-0.22474 3.258716,-0.61805 3.258716,-0.61805 0,0 -0.44916,2.24765 -0.280603,2.75332 0.168556,0.50567 1.909961,0.61805 1.909961,0.61805 0,0 0.56184,-1.29229 1.629358,-3.25871 1.067515,-1.96648 1.91037,-3.82104 3.09025,-5.8999 1.179886,-2.07886 4.719979,-6.85434 6.293156,-8.48372 1.573184,-1.62938 3.370743,-3.31483 4.550627,-4.66328 1.179886,-1.34845 4.270024,-1.68569 4.270024,-1.68569 l -0.26355,-1.42575 c 0,0 0.297964,-0.39741 0.49661,-0.57619 0.198647,-0.17878 2.602468,-0.83422 3.277836,-1.27124 0.6754,-0.43702 2.48306,-1.76785 2.48306,-1.76785 0,0 0.11923,0.43699 0.3576,0.77462 0.23837,0.3377 1.27101,0.8147 2.2841,0.65578 1.01302,-0.15889 0.65577,-0.11937 0.65577,-0.11937 0,0 1.8075,8e-5 2.04587,-0.27802 0.23838,-0.27811 0.85421,-1.17202 0.85421,-1.17202 0,0 1.07243,-0.15879 1.33067,-0.41703 0.25824,-0.25824 0.57619,-1.86769 0.57619,-2.26498 0,-0.39729 -0.55604,-1.3901 -0.55604,-1.3901 0,0 1.68847,-1.13237 1.98644,-1.39061 0.29797,-0.25824 5.06542,-2.06598 5.10512,-2.20503 0.0397,-0.13905 2.10543,0.95334 2.86029,0.91364 0.75485,-0.0397 2.06615,-0.45662 2.60242,-0.65526 0.53634,-0.19865 0.91364,-0.79478 0.91364,-0.79478 0,0 0.39754,-0.0795 1.15239,-0.0398 0.75486,0.0397 2.14557,0.75509 3.41684,2.14561 1.27133,1.39051 0.49661,4.50929 0.49661,4.50929 0,0 -1.58953,0.35758 -1.90737,0.45681 -0.31783,0.0993 -2.00616,1.62865 -2.22467,2.00608 -0.2185,0.37743 -0.79435,1.84776 -1.01286,2.22519 -0.21851,0.37743 -0.95343,1.17202 -0.95343,1.17202 0,0 0.53584,0.15891 0.67489,0.13901 0.13905,-0.0199 1.07281,-0.81442 1.07281,-0.81442 0,0 -0.23832,1.46972 -0.27802,1.82728 -0.0397,0.35756 0.0796,3.91318 -0.0594,4.56871 -0.13905,0.65553 -0.8145,1.03311 -0.894,1.07281 -0.0794,0.0397 2.40367,-0.7152 3.19825,-1.21182 0.79459,-0.49661 2.14504,-0.87363 3.27732,-1.56889 1.13228,-0.69526 2.12593,-3.2384 2.26498,-3.7946 0.13905,-0.55621 -0.35797,-3.83388 -0.59635,-4.33049 -0.23837,-0.49662 -1.39018,-1.50947 -1.46968,-1.50947 -0.0795,0 -0.15918,-3.47622 -0.33796,-4.11189 -0.17878,-0.63566 -0.93328,-1.788 -0.93328,-1.788 0,0 0.57617,-0.596 1.88723,0.45682 1.31106,1.05275 1.7281,1.07296 2.58227,1.50998 0.85417,0.43702 2.34374,2.10568 2.6417,2.52284 0.29797,0.41715 2.40377,4.46952 2.60242,4.6483 0.19865,0.17878 0.0594,2.16524 0.0594,2.16524 0,0 -0.17854,0.4569 -0.19844,0.5364 -0.0199,0.0795 -0.33796,1.07229 -0.33796,1.07229 0,0 -1.8274,0.2784 -2.40347,3.17862 -0.57607,2.90015 1.01337,3.8933 1.01337,3.8933 0,0 -1.27161,0.25813 -1.50998,0.59583 -0.23841,0.33769 -0.27802,0.67541 -0.27802,0.67541 0,0 0.75491,0.0201 1.52962,-0.0594 0.77471,-0.0795 0.83406,-0.23823 0.83406,-0.23823 0,0 0.85421,0.39691 1.35082,0.75448 0.49666,0.35756 0.41755,0.65577 0.41755,0.65577 0,0 0.31767,-0.43722 0.55604,-0.79478 0.23838,-0.35756 0.95343,-0.55604 0.95343,-0.55604 0,0 0.67555,0.55604 0.93379,0.55604 0.25823,0 1.25117,-0.73475 1.46968,-1.01286 0.21851,-0.27806 -0.0199,-0.298 -0.2186,-0.3576 -0.19861,-0.0596 -0.1589,-0.19874 -0.1788,-0.39739 -0.0199,-0.19865 -0.51624,-0.43718 -0.51624,-0.43718 0,0 0.33794,-0.71472 0.65577,-1.5689 0.31783,-0.85417 -3.9e-4,-2.52287 -0.87436,-3.69487 -0.87404,-1.17193 -1.66864,-1.23145 -1.66864,-1.23145 0,0 -0.15864,-0.47676 -0.15864,-0.67541 0,-0.19865 -0.39748,-1.11267 -0.47698,-1.33118 -0.0795,-0.21851 -0.37754,-1.50975 -0.57619,-2.02623 -0.19864,-0.51647 -0.79435,-1.86696 -1.01286,-2.4629 -0.21851,-0.59594 -1.94665,-3.0794 -1.94665,-3.0794 0,0 1.96667,0.71522 2.20504,0.894 0.23838,0.17878 0.9138,0.95348 1.35082,1.98644 0.43702,1.03295 0.77473,2.12546 1.17202,2.62207 0.39729,0.49655 0.51598,0.47672 0.67489,0.77462 0.15892,0.29797 1.23199,1.13226 1.41077,1.31104 0.17878,0.17878 1.11208,0.93377 1.60869,1.2516 0.49661,0.31783 0.37773,0.37738 0.69556,0.63562 0.31783,0.25821 0.61547,0.27802 0.61547,0.27802 l 0.0202,-0.61547 c 0,0 1.31122,1.37048 1.43041,1.54926 0.11919,0.17878 0.75473,1.52983 0.73483,1.8278 -0.0199,0.29797 0.35761,0.57567 0.35761,0.57567 0,0 0.37738,-1.5888 0.45681,-2.42311 0.0794,-0.83424 -0.0196,-1.64911 -0.0196,-2.22518 0,-0.57608 -1.11276,-4.29059 -1.54978,-5.38314 -0.43702,-1.09255 -3.17849,-2.38383 -4.58887,-2.88044 -1.41031,-0.49662 -2.80086,0.39739 -2.80086,0.39739 0,0 -0.87391,-0.37732 -1.90686,-0.59583 -1.03296,-0.21851 -1.23168,-0.79455 -2.38383,-1.31103 -1.15214,-0.51647 -2.42311,-1.31103 -2.42311,-1.31103 l 0.93328,-0.41703 c 0,0 0.77506,0.51608 0.87436,0.57568 0.0993,0.0596 0.59579,0.0401 1.23145,-0.43667 0.63567,-0.47678 1.11222,-0.17906 1.37046,-0.51676 0.25824,-0.33772 0.5364,-0.43719 0.5364,-0.43719 0,0 -0.23849,-0.33753 -0.57619,-0.55604 -0.3377,-0.21852 -2.08555,-0.37744 -3.67471,0.77463 -1.58917,1.15215 -1.88692,-0.0194 -2.86029,-0.39687 -0.97336,-0.37742 -5.58235,-1.64884 -5.56245,-1.88722 0.0199,-0.23837 0,-1.33119 0,-1.33119 0,0 0.13898,-0.13901 0.95343,-0.63562 0.81445,-0.49661 3.05916,-1.52976 3.15846,-1.788 0.0993,-0.25824 1.52965,-0.73479 2.38383,-0.87385 0.85417,-0.13905 2.48304,-1.03268 2.80087,-1.15187 0.31783,-0.1192 2.4438,-0.11945 3.11919,-0.0202 0.67539,0.0993 3.65471,4.07202 3.91294,4.35012 0.25817,0.27811 1.86753,0.85433 2.5032,1.4304 0.63566,0.57611 1.35045,0.43737 1.60869,0.55656 0.25824,0.11919 1.43033,0.65535 1.88722,0.69505 0.45688,0.0397 1.2914,-0.77463 1.2914,-0.77463 0,0 0.81409,0.67523 0.93327,0.73483 0.11919,0.0596 1.33111,0.21868 1.60921,0.29818 0.2781,0.0794 1.09278,0.15869 1.64899,0.51625 0.5562,0.3575 0.89383,1.03299 0.95343,1.35082 0.0596,0.31783 0.7152,0.91364 0.7152,0.91364 0,0 -0.13926,-0.45686 -0.15916,-0.81442 -0.0199,-0.35757 -0.15873,-2.68152 -0.23823,-3.35691 -0.0795,-0.67533 1.5e-4,-1.19201 -0.23823,-1.74821 -0.23837,-0.55621 -0.5364,-0.91364 -0.5364,-0.91364 0,0 0.13875,-0.75503 0.15865,-1.11259 0.0199,-0.35756 -1.60869,-1.84743 -1.60869,-1.84743 0,0 -3.4e-4,-0.19867 -0.0599,-0.67542 -0.0596,-0.47668 -0.67518,-1.50944 -1.19166,-1.82727 -0.51647,-0.31783 -2.14547,-1.331189 -2.38384,-1.331189 -0.23838,0 -1.98649,0.218669 -2.52284,0.437179 -0.53634,0.21851 -1.92701,0.85422 -1.92701,0.85422 0,0 -0.61584,-0.33753 -0.85421,-0.41703 -0.23834,-0.0794 -0.25787,-0.15917 -0.25787,-0.15917 0,0 1.54907,-0.47659 1.9265,-0.556035 0.37743,-0.07946 1.13279,-0.973237 1.45055,-1.41025 0.31783,-0.43702 0.31781,-0.834574 0.31781,-0.834574 0,0 -0.8744,0.377423 -1.23196,0.49661 -0.35756,0.11919 -1.78742,-0.01974 -2.74092,0.07958 -0.95349,0.09932 -1.74839,0.655359 -2.3642,1.052649 -0.6158,0.397283 -2.08592,2.08604 -2.92023,2.32441 -0.83431,0.2384 -0.75453,-0.0401 -1.29088,-0.0997 -0.53634,-0.0596 -0.57616,0.17882 -1.39061,0.3576 -0.81444,0.17878 -2.90008,0.51677 -2.90008,0.51677 0,0 1.54951,-1.52946 2.20503,-2.08566 0.65554,-0.556239 0.59587,-0.6754 0.45682,-0.993226 -0.13905,-0.317834 0.675,-0.874383 1.07229,-1.549777 0.3973,-0.675386 3.13906,-3.218155 4.29121,-4.052466 1.15214,-0.834303 3.09876,-1.946717 3.75429,-2.483052 0.65553,-0.536337 5.3635,-0.556039 5.3635,-0.556039 0,0 0.21811,0.417049 0.57567,0.59583 0.35756,0.178782 0.77515,0.03979 0.77515,0.03979 0,0 -0.1987,0.496608 -0.1788,0.993221 0.0199,0.496608 0.97323,1.390777 2.40347,2.324406 1.43025,0.933625 3.27784,-0.198955 3.27784,-0.198955 0,0 -0.0397,0.397253 0.27801,0.63562 0.31783,0.238376 0.75483,0.477056 0.81443,0.695565 0.0596,0.218511 -0.0202,0.595829 -0.0202,0.595829 0,0 0.6556,-1.172161 0.7152,-1.430403 0.0596,-0.258238 -0.47654,-0.714746 -0.55604,-0.754476 -0.0794,-0.03973 0.15857,-0.139442 0.43667,-0.417546 0.2781,-0.278096 0.65563,-0.714969 0.894,-0.734839 0.23838,-0.01986 0.755,-0.05943 0.755,-0.05943 0,0 -0.61565,-1.311303 -0.73484,-1.648995 -0.11919,-0.337695 -0.65578,-0.754993 -0.65578,-0.754993 0,0 0.27845,3.95e-4 0.55656,-0.07906 0.2781,-0.07946 0.79426,-0.63562 0.79426,-0.63562 0,0 5e-5,-0.218652 -0.139,-0.258382 -0.13906,-0.03973 -1.4702,0.07958 -1.4702,0.07958 0,0 1.27134,-1.033234 1.66863,-1.509985 0.39729,-0.47674 -0.15882,-1.668591 -1.27124,-0.31781 -1.11241,1.350784 -1.66868,0.238376 -2.70164,0 -1.03295,-0.238374 -2.30418,-0.317709 -3.25768,0.07958 -0.9535,0.397283 -1.19166,1.58905 -1.19166,1.58905 0,0 -0.55614,0.07934 -0.95343,-0.07958 -0.39729,-0.158916 -1.03301,0.794784 -1.03301,0.794784 0,0 -1.58946,-0.476987 -3.17862,-0.159164 -1.58917,0.317834 -4.44934,1.748214 -4.44934,1.748214 0,0 0.15871,-0.158816 1.19166,-1.58905 1.03296,-1.430238 2.54257,-1.589158 2.93987,-1.986442 0.39729,-0.397293 5.64151,-5.244125 5.64151,-5.244125 0,0 1.50995,-0.397513 2.14561,-0.476973 0.63567,-0.07946 3.65474,-2.145499 4.76715,-3.734656 1.11242,-1.589147 0.79487,-6.356177 0.87437,-6.674011 0.0795,-0.31783 -0.95354,-2.860994 -1.35083,-3.973401 -0.39729,-1.112407 -0.79478,-4.051949 -0.79478,-4.051949 0,0 -0.6356,1.350636 -0.95343,2.22467 -0.31784,0.87404 -2.5427,2.622016 -3.01945,3.257683 -0.47674,0.635657 -2.14506,3.258015 -2.4629,6.118489 -0.31788,2.860471 -8e-5,3.734303 -0.0796,5.164543 -0.0795,1.430238 -0.71516,1.907316 -1.35083,2.860807 -0.63566,0.95349 -3.57549,2.860291 -3.57549,2.860291 l 0.47646,-1.906861 -0.31781,-0.238745 c 0,0 -0.95351,0.715557 -1.03301,1.271757 -0.0795,0.556208 -0.79437,2.304105 -1.19166,2.542481 -0.39729,0.238374 -3.17825,3.17831 -3.8933,3.972884 -0.71513,0.794573 -2.78123,2.463415 -2.78123,2.463415 0,0 0.47682,-1.112411 0.7152,-1.986442 0.23837,-0.874034 3.17817,-2.860621 3.8933,-3.734655 0.71512,-0.874038 0.8741,-2.781267 1.03302,-4.132048 0.15892,-1.350781 1.43046,-2.383439 2.46341,-2.462899 1.03296,-0.07946 0.63562,0.794267 0.63562,0.794267 0,0 1.11205,-1.112178 -0.23874,-1.509469 -1.35079,-0.397283 -3.41666,0.476457 -4.2907,0.476457 -0.87404,0 -2.78093,1.033199 -3.25768,2.145606 -0.47675,1.112407 -2.62198,3.495911 -1.90686,5.482352 0.71509,1.986438 0.47663,3.734698 -0.0796,5.085478 -0.5562,1.350781 -3.73452,5.085483 -3.97289,5.403285 -0.23838,0.31783 -1.27158,0.55619 -1.82779,0.63562 -0.55621,0.0795 -1.27095,1.42999 -1.7477,1.82728 -0.47675,0.39729 -3.89365,2.54278 -4.44986,2.06603 -0.5562,-0.47675 -0.8739,-0.47649 -1.90686,-0.15865 -1.03296,0.31783 -1.90735,7e-5 -4.21163,-0.95343 -2.30422,-0.9535 -7.54837,-4.688087 -7.54837,-4.688087 l -0.0796,-1.430404 c 0,0 1.90701,-0.397353 3.33726,-1.033012 1.43024,-0.635657 5.00603,-2.06594 6.75411,-3.337264 1.74808,-1.271324 5.95946,-4.290504 7.70754,-7.150985 1.74808,-2.860471 5.87972,-8.660973 7.15098,-12.633854 1.27134,-3.972878 0.63585,-8.660994 1.1126,-10.329602 0.47675,-1.668607 0.63559,-2.940058 0.95343,-4.052466 0.31783,-1.112407 1.74821,-4.528922 1.74821,-4.528922 0,0 3.25747,0.0791 4.44934,-0.556555 1.19187,-0.635665 2.46342,-0.158647 2.46342,-0.158647 l -0.11679,-0.140043 -0.39484,-0.226112 c 0,0 -3.10694,-1.040254 -6.43937,-1.13425 -0.81606,-0.02302 -1.33292,0.04102 -3.14719,0.0015 l -1.76306,-0.01634 c 0.10831,-1.292341 -1.76217,-2.720666 3.55054,-6.472657 l 1.25557,0.333695 c -1.56242,0.8658 -3.58729,1.873029 -4.42641,4.833279 0,0 -0.1726,0.629435 0.95623,0.652396 l 2.5655,-0.07483 c 2.23193,-0.0038 5.08817,-0.01264 7.37487,0.513036 0.99439,0.255701 1.49269,0.539811 2.00657,1.11053 0,0 0.49604,-1.898464 -1.64933,-3.805446 -2.1453,-1.906989 -6.20862,-3.838325 -6.20862,-3.838325 0,0 -1.1124,-4.926834 -3.97289,-6.913273 -2.86043,-1.98644 -6.27703,-3.257561 -10.48824,-3.178101 z m 3.22667,9.037691 c 0.4173,0.0079 0.78765,0.23218 1.08262,0.305925 0.33711,0.08428 0.78629,0.688332 0.89866,0.842842 0.11235,0.154509 0.22498,0.941318 0.19688,1.208195 -0.0281,0.26688 -0.54777,0.772566 -0.70228,0.927076 -0.15451,0.154509 -1.78416,0.308596 -2.36006,0.140043 -0.5759,-0.168556 -0.89894,-0.491543 -1.16582,-0.786516 -0.26688,-0.29497 -0.0562,-0.955131 0,-1.320332 0.0562,-0.365205 0.70266,-0.926749 0.9555,-1.053166 0,0 0.42098,-0.182985 0.9126,-0.253215 0.0615,-0.0088 0.12229,-0.01198 0.1819,-0.01085 z m -6.0079,16.547827 c -0.0794,0.715124 -0.0793,7.46898 -0.23823,8.581389 -0.15892,1.112409 -1.7004,6.976387 -3.65507,9.93221 -1.9479,2.945584 -6.15378,6.239031 -12.82919,9.321912 -3.39121,1.566132 -5.227475,1.378823 -14.969632,5.320088 -4.910978,1.986774 -11.533146,3.95118 -11.533146,3.95118 0,0 1.509835,-0.397343 5.721098,-3.019454 4.211258,-2.622104 19.30465,-8.551045 24.01145,-11.640633 6.87552,-4.51311 9.25472,-6.875319 10.95024,-11.018449 2.2569,-5.514898 2.54248,-11.428243 2.54248,-11.428243 z m -16.39848,38.364067 c 0.0384,-2.33e-4 0.0748,0.004 0.10955,0.01395 0.27811,0.07946 0.41722,0.179169 0.5364,0.417545 0.11919,0.238378 0.55641,0.476718 1.2914,0.496618 0.73499,0.0199 1.21142,0.23803 1.78749,0.61546 0.576,0.37742 6.7738,4.13219 7.31014,4.39043 0.53634,0.25824 0.33814,0.55619 0.27854,0.81442 -0.0596,0.25824 -1.03298,1.09244 -1.35082,1.09244 -0.31783,0 -1.82761,0.17867 -2.70165,1.58905 -0.87403,1.41038 0.0594,0.9338 0.0594,0.9338 0,0 -3.47602,1.84707 -4.31033,2.28409 -0.83432,0.43704 -1.7283,0.0795 -2.38383,-0.0992 -0.65553,-0.17878 -1.25187,-1.33095 -2.08618,-2.34405 -0.83431,-1.01309 -2.26437,-2.86008 -2.54248,-3.55534 -0.2781,-0.69526 -0.67528,-1.23161 -1.092441,-1.66863 -0.417156,-0.43702 -0.476938,-0.89397 -0.615983,-1.70842 -0.139051,-0.81445 0.516588,-2.26469 1.072804,-2.741439 0,0 0.43722,0.09922 0.79478,0.09922 0.35756,0 1.78763,-0.178461 2.54248,-0.297651 0.6605,-0.104281 1.03183,-0.330651 1.3007,-0.332279 z"
       sodipodi:nodetypes="sccsssssscscscscsssscscccsccscscsscscsssssssscccscsssssccscsscscssscsscsssccssssccsssssscscsccsssccssccscscsscsscscccccsscccsscssssssccssscscscccccccscscsccsccscsscsscssssccsccsssccssccssscscsscscsssccsscsccscccscccsssscccsccssscsscssssscsccsccscscsscscscscsssscscscsscsscscssccsccccsccsssscssscsscssscccssscsscscccsccccccccccccsscsssssccssccscscscscsssccsssscscsssscssssss" /></g></svg>
